<?xml version="1.0" encoding="utf-8"?>
<!-- Generator: Adobe Illustrator 26.5.0, SVG Export Plug-In . SVG Version: 6.00 Build 0)  -->
<svg version="1.1" id="Layer_1" xmlns="http://www.w3.org/2000/svg" xmlns:xlink="http://www.w3.org/1999/xlink" x="0px" y="0px"
	 viewBox="0 0 512 512" style="enable-background:new 0 0 512 512;" xml:space="preserve">
<style type="text/css">
	.st0{fill:#4E8EF7;}
</style>
<g id="XMLID_1_">
	<rect id="XMLID_2_" x="227.69" y="232.96" class="st0" width="3.65" height="69.84"/>
	<path id="XMLID_3_" class="st0" d="M283.93,231.28c-20.9,0-36.74,15.85-36.74,36.6c0,20.9,15.85,36.6,36.74,36.6
		c21.04,0,36.74-15.71,36.74-36.6C320.67,247.12,304.82,231.28,283.93,231.28z M283.93,301.12c-18.79,0-33.1-14.3-33.1-33.24
		s14.3-33.24,33.1-33.24c18.79,0,33.1,14.3,33.1,33.24C317.02,286.95,302.72,301.12,283.93,301.12z"/>
	<path id="XMLID_6_" class="st0" d="M390.37,238.29c-7.85-6.45-17.39-7.01-22.3-7.01c-11.08,0-23.28,5.19-27.63,15.15h-0.28v-13.46
		h-3.65v69.84h3.65v-40.25c0-17.53,10.8-27.91,28.33-27.91c10.52,0,16.27,3.37,19.77,6.59c5.33,4.77,8.55,12.48,8.55,24.68v36.88
		h3.65v-36.88C400.6,253.44,397.24,244.04,390.37,238.29z"/>
	<rect id="XMLID_7_" x="420.94" y="232.96" class="st0" width="3.65" height="69.84"/>
	<path id="XMLID_8_" class="st0" d="M477.17,301.12c-17.81,0-33.1-13.46-33.1-33.24c0-9.54,3.93-18.65,9.68-23.84
		c7.29-6.45,13.74-9.4,23.56-9.4c13.74,0,25.8,7.71,30.57,20.9h4.07c-5.47-16.55-20.61-24.4-34.78-24.4
		c-21.18,0-36.74,16.13-36.74,36.74c0,21.74,16.55,36.46,36.74,36.46c16.55,0,29.73-9.54,34.64-23.7h-4.07
		C504.24,291.3,493.02,301.12,477.17,301.12z"/>
	<circle id="XMLID_9_" class="st0" cx="229.52" cy="211.36" r="3.93"/>
	<circle id="XMLID_10_" class="st0" cx="422.76" cy="211.36" r="3.93"/>
	<circle id="XMLID_11_" class="st0" cx="89.42" cy="255.96" r="36.46"/>
	<path id="XMLID_12_" class="st0" d="M163.75,194.12c0-6.87-5.61-12.48-12.48-12.48c-3.09,0-6.03,1.12-8.27,3.09
		c-15.01-11.22-33.52-17.95-53.71-17.95c-49.22,0-89.33,40.11-89.33,89.33s40.11,89.33,89.33,89.33s89.33-40.11,89.33-89.33
		c0-20.05-6.73-38.71-17.95-53.71C162.62,200.15,163.75,197.2,163.75,194.12z M89.42,342.2c-47.54,0-86.24-38.71-86.24-86.24
		s38.71-86.24,86.24-86.24c19.35,0,37.16,6.45,51.61,17.25c-1.4,2.1-2.24,4.49-2.24,7.29c0,6.87,5.61,12.48,12.48,12.48
		c2.66,0,5.19-0.84,7.29-2.24c10.8,14.44,17.25,32.25,17.25,51.61C175.67,303.5,136.96,342.2,89.42,342.2z"/>
</g>
</svg>
