<?xml version="1.0" encoding="utf-8"?>
<!-- Generator: Adobe Illustrator 27.0.0, SVG Export Plug-In . SVG Version: 6.00 Build 0)  -->
<svg version="1.1" id="Layer_1" xmlns="http://www.w3.org/2000/svg" xmlns:xlink="http://www.w3.org/1999/xlink" x="0px" y="0px"
	 viewBox="0 0 512 512" style="enable-background:new 0 0 512 512;" xml:space="preserve">
<style type="text/css">
	.st0{fill:#00749A;}
	.st1{fill:#464342;}
</style>
<g id="Layer_2_00000083048796090678718540000011297218929071730819_">
	<g id="XMLID_2_">
		<path class="st0" d="M296.93,243.69h-20.2v2.08c6.36,0,7.33,1.38,7.33,9.41v14.39c0,8.02-0.97,9.41-7.33,9.41
			c-4.84-0.69-8.16-3.32-12.59-8.16l-5.12-5.67c6.92-1.25,10.65-5.67,10.65-10.51c0-6.23-5.26-10.93-15.22-10.93h-19.78v2.08
			c6.36,0,7.33,1.38,7.33,9.41v14.39c0,8.02-0.97,9.41-7.33,9.41v2.08h22.41v-2.08c-6.36,0-7.33-1.52-7.33-9.41v-4.01h1.94
			l12.45,15.63h32.79c16.05,0,23.1-8.58,23.1-18.81C320.03,252.13,312.98,243.69,296.93,243.69z M249.76,261.95v-14.94h4.57
			c5.12,0,7.33,3.46,7.33,7.61c0,3.87-2.21,7.47-7.33,7.47L249.76,261.95L249.76,261.95z M297.21,277.58h-0.83
			c-4.01,0-4.57-0.97-4.57-6.23v-24.49c0,0,4.98,0,5.4,0c11.76,0,13.83,8.58,13.83,15.22C311.04,269.14,308.97,277.58,297.21,277.58
			z"/>
		<path id="XMLID_15_" class="st0" d="M172.01,266.1l7.75-22.96c2.21-6.64,1.25-8.58-5.95-8.58v-2.21h21.17v2.21
			c-7.06,0-8.72,1.66-11.62,9.96l-12.87,38.46h-1.52l-11.48-35.28l-11.76,35.28h-1.52l-12.45-38.46c-2.77-8.16-4.57-9.96-11.07-9.96
			v-2.21h25.04v2.21c-6.64,0-8.44,1.52-6.09,8.58l7.61,22.96l11.34-33.76h2.08L172.01,266.1z"/>
		<path class="st0" d="M210.19,282.56c-12.31,0-22.55-9.13-22.55-20.2c0-11.07,10.1-20.2,22.55-20.2c12.45,0,22.55,9.13,22.55,20.2
			C232.74,273.43,222.64,282.56,210.19,282.56z M210.19,245.62c-10.38,0-13.97,9.41-13.97,16.6c0,7.47,3.6,16.6,13.97,16.6
			c10.51,0,14.11-9.27,14.11-16.6C224.3,255.03,220.7,245.62,210.19,245.62z"/>
		<path class="st1" d="M347.84,278.83v2.21h-25.73v-2.21c7.61,0,8.85-1.94,8.85-13.14V247.7c0-11.21-1.38-13-8.85-13v-2.21h23.24
			c11.62,0,17.98,5.95,17.98,13.97c0,7.75-6.36,13.83-17.98,13.83h-6.36v5.53C338.85,277.03,340.23,278.83,347.84,278.83z
			 M345.35,236.49h-6.36V256h6.36c6.36,0,9.27-4.43,9.27-9.68C354.62,240.92,351.57,236.49,345.35,236.49z"/>
		<path class="st1" d="M440.67,270.53l-0.55,2.08c-0.97,3.74-2.21,5.12-10.24,5.12h-1.52c-5.81,0-6.92-1.38-6.92-9.41v-5.12
			c8.72,0,9.41,0.83,9.41,6.64h2.08v-16.74h-2.08c0,5.81-0.69,6.64-9.41,6.64v-12.59h6.23c8.02,0,9.27,1.38,10.24,5.12l0.55,2.08
			h1.8l-0.83-10.51h-33.06v2.08c6.36,0,7.33,1.38,7.33,9.41v14.39c0,7.33-0.83,9.13-5.81,9.41c-4.7-0.69-8.02-3.32-12.45-8.16
			l-5.12-5.67c6.92-1.25,10.65-5.67,10.65-10.51c0-6.23-5.26-10.93-15.22-10.93h-19.78v2.08c6.36,0,7.33,1.38,7.33,9.41v14.39
			c0,8.02-0.97,9.41-7.33,9.41v2.08h22.41v-2.08c-6.36,0-7.33-1.52-7.33-9.41v-4.01h1.94l12.45,15.63h46.21l0.69-10.51
			L440.67,270.53L440.67,270.53z M381.04,261.95v-14.94h4.57c5.12,0,7.33,3.46,7.33,7.61c0,3.87-2.21,7.47-7.33,7.47L381.04,261.95
			L381.04,261.95z"/>
		<path id="XMLID_8_" class="st1" d="M463.49,282.56c-4.57,0-8.44-2.35-10.1-3.87c-0.55,0.55-1.52,2.21-1.8,3.87h-2.08v-15.49h2.21
			c0.97,7.47,6.09,11.76,12.73,11.76c3.6,0,6.5-2.08,6.5-5.4c0-2.91-2.63-5.12-7.19-7.33l-6.36-3.04
			c-4.57-2.08-7.89-5.81-7.89-10.79c0-5.4,5.12-9.96,12.04-9.96c3.74,0,6.92,1.38,8.72,2.91c0.55-0.42,1.11-1.66,1.52-3.04h2.08
			v13.28h-2.35c-0.83-5.26-3.74-9.68-9.68-9.68c-3.18,0-6.09,1.8-6.09,4.57c0,2.91,2.35,4.57,7.75,6.92l6.23,3.04
			c5.4,2.63,7.61,6.78,7.61,10.1C477.19,277.58,471.1,282.56,463.49,282.56z"/>
		<path id="XMLID_7_" class="st1" d="M498.22,282.56c-4.57,0-8.44-2.35-10.1-3.87c-0.55,0.55-1.52,2.21-1.8,3.87h-2.08v-15.49h2.21
			c0.97,7.47,6.09,11.76,12.73,11.76c3.6,0,6.5-2.08,6.5-5.4c0-2.91-2.63-5.12-7.19-7.33l-6.36-3.04
			c-4.57-2.08-7.89-5.81-7.89-10.79c0-5.4,5.12-9.96,12.04-9.96c3.74,0,6.92,1.38,8.72,2.91c0.55-0.42,1.11-1.66,1.52-3.04h2.08
			v13.28h-2.35c-0.83-5.26-3.74-9.68-9.68-9.68c-3.18,0-6.09,1.8-6.09,4.57c0,2.91,2.35,4.57,7.75,6.92l6.23,3.04
			c5.4,2.63,7.61,6.78,7.61,10.1C511.91,277.58,505.69,282.56,498.22,282.56z"/>
		<g id="XMLID_3_">
			<path id="XMLID_6_" class="st1" d="M8.35,256c0,19.78,11.48,36.8,28.08,44.82l-23.79-65.16C9.87,241.89,8.35,248.81,8.35,256z"/>
			<path id="XMLID_5_" class="st1" d="M91.77,253.51c0-6.23-2.21-10.38-4.15-13.7c-2.49-4.15-4.84-7.61-4.84-11.62
				c0-4.57,3.46-8.85,8.3-8.85c0.28,0,0.42,0,0.69,0c-8.85-8.16-20.61-13.14-33.62-13.14c-17.43,0-32.65,8.99-41.64,22.41
				c1.11,0,2.21,0,3.18,0c5.26,0,13.28-0.69,13.28-0.69c2.63-0.14,3.04,3.74,0.28,4.15c0,0-2.77,0.28-5.67,0.42l18.12,53.95
				l10.93-32.65l-7.75-21.3c-2.63-0.14-5.26-0.42-5.26-0.42c-2.63-0.14-2.35-4.29,0.28-4.15c0,0,8.16,0.69,13.14,0.69
				c5.26,0,13.28-0.69,13.28-0.69c2.63-0.14,3.04,3.74,0.28,4.15c0,0-2.77,0.28-5.67,0.42l17.98,53.54l4.98-16.6
				C90.11,262.64,91.77,257.8,91.77,253.51z"/>
			<path id="XMLID_4_" class="st1" d="M58.98,260.29l-14.94,43.44c4.43,1.25,9.13,2.08,14.11,2.08c5.81,0,11.34-0.97,16.6-2.77
				c-0.14-0.28-0.28-0.42-0.42-0.69L58.98,260.29z"/>
			<path id="XMLID_19_" class="st1" d="M101.87,232.07c0.28,1.52,0.28,3.32,0.28,5.12c0,5.12-0.97,10.79-3.74,17.85l-15.22,43.99
				c14.8-8.58,24.76-24.62,24.76-43.02C107.96,247.28,105.74,239.26,101.87,232.07z"/>
			<path class="st1" d="M58.15,197.9c-31.96,0-58.1,26.01-58.1,58.1c0,31.96,26.01,58.1,58.1,58.1c31.96,0,58.1-26.01,58.1-58.1
				C116.26,224.04,90.11,197.9,58.15,197.9z M58.15,311.47c-30.57,0-55.47-24.9-55.47-55.47s24.9-55.34,55.47-55.34
				s55.34,24.9,55.34,55.34C113.49,286.57,88.73,311.47,58.15,311.47z"/>
		</g>
	</g>
</g>
</svg>
